<svg xmlns="http://www.w3.org/2000/svg" viewBox="0 0 500 300" width="500" height="300">
  <!-- Background -->
  <rect width="500" height="300" rx="20" ry="20" fill="#ffffff" stroke="#e6c200" stroke-width="8"/>
  
  <!-- Decorative elements -->
  <rect x="0" y="120" width="50" height="60" rx="10" ry="10" fill="#e6c200"/>
  <rect x="450" y="120" width="50" height="60" rx="10" ry="10" fill="#e6c200"/>
  
  <!-- Cutout holes -->
  <circle cx="50" cy="150" r="20" fill="#ffffff"/>
  <circle cx="450" cy="150" r="20" fill="#ffffff"/>
  
  <!-- Border pattern -->
  <path d="M40,40 L460,40 L460,260 L40,260 Z" fill="none" stroke="#e6c200" stroke-width="2" stroke-dasharray="5,5"/>
  
  <!-- Title -->
  <text x="250" y="80" font-family="Arial, sans-serif" font-size="28" font-weight="bold" fill="#8b0000" text-anchor="middle">FESTIVE UTSAV OFFER</text>
  
  <!-- Offer amount -->
  <text x="250" y="140" font-family="Arial, sans-serif" font-size="48" font-weight="bold" fill="#8b0000" text-anchor="middle">₹5,00,000</text>
  <text x="250" y="170" font-family="Arial, sans-serif" font-size="18" font-weight="bold" fill="#8b0000" text-anchor="middle">DISCOUNT</text>
  
  <!-- Offer details -->
  <text x="250" y="200" font-family="Arial, sans-serif" font-size="16" fill="#333333" text-anchor="middle">Valid till December 2025</text>
  <text x="250" y="225" font-family="Arial, sans-serif" font-size="14" fill="#333333" text-anchor="middle">Premium Offer</text>
  <text x="250" y="245" font-family="Arial, sans-serif" font-size="12" fill="#666666" text-anchor="middle">Omkar Estate Agency</text>
  
  <!-- Seal -->
  <circle cx="250" cy="150" r="100" fill="none" stroke="#e6c200" stroke-width="2"/>
  <circle cx="250" cy="150" r="90" fill="none" stroke="#e6c200" stroke-width="1"/>
  
  <!-- Festive decoration -->
  <g transform="translate(150, 50)">
    <path d="M0,0 L10,20 L20,0 L0,0" fill="#e6c200"/>
  </g>
  <g transform="translate(330, 50)">
    <path d="M0,0 L10,20 L20,0 L0,0" fill="#e6c200"/>
  </g>
  <g transform="translate(150, 250)">
    <path d="M0,0 L10,20 L20,0 L0,0" fill="#e6c200"/>
  </g>
  <g transform="translate(330, 250)">
    <path d="M0,0 L10,20 L20,0 L0,0" fill="#e6c200"/>
  </g>
</svg>