<svg xmlns="http://www.w3.org/2000/svg" viewBox="0 0 800 600" width="800" height="600">
  <!-- Background -->
  <rect width="800" height="600" fill="#f9f9f9"/>
  
  <!-- Floor -->
  <rect width="800" height="400" y="200" fill="#e6ccb2"/>
  
  <!-- Wall -->
  <rect width="800" height="200" fill="#ffffff"/>
  <rect x="0" y="200" width="800" height="10" fill="#d9d9d9"/>
  
  <!-- Sofa -->
  <rect x="250" y="400" width="300" height="100" rx="20" ry="20" fill="#3a7ca5"/>
  <rect x="280" y="420" width="240" height="60" rx="10" ry="10" fill="#2f6690"/>
  
  <!-- Sofa pillows -->
  <ellipse cx="350" cy="400" rx="30" ry="25" fill="#ffb3b3"/>
  <ellipse cx="450" cy="400" rx="30" ry="25" fill="#b3e6ff"/>
  <ellipse cx="520" cy="400" rx="30" ry="25" fill="#ccffcc"/>
  
  <!-- Coffee table -->
  <rect x="350" y="510" width="100" height="80" rx="5" ry="5" fill="#8b4513"/>
  <rect x="350" y="580" width="100" height="10" fill="#654321"/>
  <rect x="370" y="580" width="60" height="10" fill="#654321"/>
  
  <!-- Table decoration -->
  <circle cx="400" cy="550" r="15" fill="#336633"/>
  <circle cx="395" cy="545" r="8" fill="#4d994d"/>
  <circle cx="405" cy="547" r="8" fill="#4d994d"/>
  <circle cx="400" cy="553" r="8" fill="#4d994d"/>
  
  <!-- TV Unit -->
  <rect x="100" y="400" width="120" height="200" fill="#d9d9d9"/>
  <rect x="120" y="420" width="80" height="120" rx="5" ry="5" fill="#333333"/>
  
  <!-- TV Screen -->
  <rect x="125" y="425" width="70" height="110" fill="#1a1a1a"/>
  
  <!-- Window -->
  <rect x="550" y="100" width="200" height="200" fill="#add8e6"/>
  <rect x="550" y="200" width="200" height="1" fill="#ffffff"/>
  <rect x="650" y="100" width="1" height="200" fill="#ffffff"/>
  <rect x="648" y="98" width="5" height="4" fill="#d9d9d9"/>
  <rect x="648" y="304" width="5" height="4" fill="#d9d9d9"/>
  
  <!-- Window view -->
  <rect x="555" y="105" width="190" height="90" fill="#87ceeb"/>
  <rect x="555" y="205" width="190" height="90" fill="#87ceeb"/>
  <rect x="555" y="105" width="90" height="180" fill="#87ceeb"/>
  <rect x="655" y="105" width="90" height="180" fill="#87ceeb"/>
  
  <!-- Window view - buildings -->
  <rect x="570" y="160" width="20" height="40" fill="#708090"/>
  <rect x="610" y="170" width="15" height="30" fill="#708090"/>
  <rect x="660" y="150" width="25" height="50" fill="#708090"/>
  <rect x="700" y="165" width="18" height="35" fill="#708090"/>
  
  <!-- Lamp -->
  <rect x="500" y="150" width="5" height="30" fill="#b8860b"/>
  <circle cx="502.5" cy="145" r="20" fill="#fffacd" opacity="0.8"/>
  <circle cx="502.5" cy="145" r="15" fill="#ffd700" opacity="0.8"/>
  
  <!-- Bookshelf -->
  <rect x="100" y="280" width="120" height="120" fill="#8b4513"/>
  <rect x="100" y="330" width="120" height="2" fill="#654321"/>
  <rect x="100" y="380" width="120" height="2" fill="#654321"/>
  <rect x="130" y="280" width="2" height="120" fill="#654321"/>
  <rect x="160" y="280" width="2" height="120" fill="#654321"/>
  <rect x="190" y="280" width="2" height="120" fill="#654321"/>
  
  <!-- Books -->
  <rect x="105" y="340" width="20" height="30" fill="#ff6b6b"/>
  <rect x="135" y="340" width="20" height="30" fill="#4ecdc4"/>
  <rect x="165" y="340" width="20" height="30" fill="#ffe66d"/>
  <rect x="195" y="340" width="20" height="30" fill="#1a535c"/>
  </svg>